# xmcd
#
# Track frame offsets:
#	150
#	21482
#	46167
#	63599
#	83376
#	107950
#	128470
#	150687
#	173339
#	193328
#	213333
#	231415
#	251254
#	273029
#	289498
#	309053
#
# Disc length: 4408 seconds
#
# Revision: 1
# Processed by: cddbd v1.5.1PL0 Copyright (c) Steve Scherf et al.
# Submitted via: CDex 1.50Beta5
#
DISCID=d2113610
DTITLE=堀内孝雄 - BEST,THE/影法師
DYEAR=1993
DGENRE=Pop
TTITLE0=影法師
TTITLE1=都会の天使たち
TTITLE2=恋唄綴り
TTITLE3=ガキの頃のように
TTITLE4=ほほえみを花束にして
TTITLE5=冗談じゃねえ
TTITLE6=青春追えば
TTITLE7=遠き日の少年
TTITLE8=波の調べに
TTITLE9=愛しき日々
TTITLE10=泣かせて
TTITLE11=憧れ遊び
TTITLE12=あなたが美しいのは
TTITLE13=海を抱く時
TTITLE14=クラシックを聴きに行った
TTITLE15=遥かな轍
EXTD=
EXTT0=
EXTT1=
EXTT2=
EXTT3=
EXTT4=
EXTT5=
EXTT6=
EXTT7=
EXTT8=
EXTT9=
EXTT10=
EXTT11=
EXTT12=
EXTT13=
EXTT14=
EXTT15=
PLAYORDER=
